<?xml version="1.0" encoding="utf-8"?>
<!-- Generator: Adobe Illustrator 27.9.0, SVG Export Plug-In . SVG Version: 6.00 Build 0)  -->
<svg version="1.1" id="レイヤー_1" xmlns="http://www.w3.org/2000/svg" xmlns:xlink="http://www.w3.org/1999/xlink" x="0px"
	 y="0px" viewBox="0 0 280 40.9" style="enable-background:new 0 0 280 40.9;" xml:space="preserve">
<style type="text/css">
	.st0{fill:#E50020;}
</style>
<g>
	<g>
		<polygon class="st0" points="188.4,7.4 190.3,0 157.2,0 155.3,7.4 166.6,7.4 159.4,34.9 168.7,34.9 175.9,7.4 		"/>
		<polygon class="st0" points="178.7,11.2 172.5,34.9 181.1,34.9 187.4,11.2 		"/>
		<polygon class="st0" points="191.2,11.2 222.4,11.2 216.2,34.9 207.6,34.9 212.2,17.3 209.5,17.3 204.9,34.9 196.3,34.9 
			200.9,17.3 198.2,17.3 193.6,34.9 185,34.9 		"/>
		<path class="st0" d="M220,34.9h25.3l1.6-6.1h-16.6l0.7-2.7h16.6c0.6-2.8,3.2-11.8,3.9-14.9c-7.7-0.1-17.6,0.1-25.3,0L220,34.9z
			 M233.3,17.3h8l-0.7,2.7h-8L233.3,17.3z"/>
		<polygon class="st0" points="254.7,11.2 250.8,26.1 267.5,26.1 266.7,28.8 250.1,28.8 248.5,34.9 273.8,34.9 277.7,20 261,20 
			261.8,17.3 278.4,17.3 280,11.2 		"/>
	</g>
	<g>
		<path class="st0" d="M17.3,34.9L17.3,34.9h25.3l6.2-23.7c-7.6,0-17.7,0-25.3,0l0,0L17.3,34.9z M27.5,28.8l3-11.5h8l-3,11.5H27.5z"
			/>
		<path class="st0" d="M72.8,34.9L72.8,34.9h25.3l6.2-23.7c-7.6,0-17.7,0-25.3,0l0,0L72.8,34.9z M83.1,28.8l3-11.5h8l-3,11.5H83.1z"
			/>
		<polygon class="st0" points="125.6,17.1 127.1,11.2 121,11.2 122,7.4 113.4,7.4 112.4,11.2 106.2,11.2 104.7,17.1 110.8,17.1 
			106.1,34.9 114.8,34.9 119.4,17.1 		"/>
		<path class="st0" d="M129,11.2l-1.6,6.1H144l-0.7,2.7c-4.2,0-12.5,0-16.6,0l-3.9,14.9h25.3l6.2-23.7H129z M133,28.8l0.7-2.7h8
			l-0.7,2.7H133z"/>
		<polygon class="st0" points="49.8,7.4 51.7,0 1.9,0 0,7.4 11.3,7.4 4.1,34.9 13.5,34.9 20.7,7.4 		"/>
		<path class="st0" d="M79.1,11.2L79.1,11.2L79.1,11.2h-9.8l-8.6,10.6l-3-10.6h-8.9L54.1,30l0,0l-8.8,10.9h9.8L79.1,11.2"/>
	</g>
</g>
</svg>
